<svg id="Logo" viewBox="0 0 412.5 250.8" enable-background="new 0 0 228.5 145.8" sodipodi:docname="main.svg" width="412.5" height="250.8" inkscape:version="1.1.2 (0a00cf5339, 2022-02-04)" xmlns:inkscape="http://www.inkscape.org/namespaces/inkscape" xmlns:sodipodi="http://sodipodi.sourceforge.net/DTD/sodipodi-0.dtd" xmlns="http://www.w3.org/2000/svg" xmlns:svg="http://www.w3.org/2000/svg"><defs id="defs25"/><sodipodi:namedview id="namedview23" pagecolor="#ffffff" bordercolor="#666666" borderopacity="1" inkscape:pageshadow="2" inkscape:pageopacity="0" inkscape:pagecheckerboard="0" showgrid="false" width="227.5" inkscape:zoom="2.0594292" inkscape:cx="144.70029" inkscape:cy="84.732218" inkscape:window-width="2192" inkscape:window-height="1161" inkscape:window-x="0" inkscape:window-y="0" inkscape:window-maximized="1" inkscape:current-layer="Logo"/><g id="g20" transform="matrix(1.3196075,0,0,1.4217796,53.775022,17.551468)"><g id="g18"><path fill="#013444" d="m87 127.6c-.1.0-.1.0-.2.0l-12.9-4.1c-4.1 2.7-9 4.2-14.3 4.2-15.7.0-22.7-7.6-22.7-24.5v-26c0-.3.2-.5.5-.5h13.3c.3.0.5.2.5.5v25.9c0 3.8.9 6.8 2.7 8.7 1.8 1.9 4.5 2.8 8.1 2.8 4.4.0 8.2-1.3 11.3-3.9V77.2c0-.3.2-.5.5-.5h13.3c.3.0.5.2.5.5v49.9c0 .3-.2.5-.5.5H87s0 0 0 0" id="path2"/><path fill="#013444" d="m128.9 127.6c-5.3.0-10.7-1.4-15.2-4.1l-13.1 4.1c-.2.0-.3.0-.4-.1-.1-.1-.2-.2-.2-.4V53.9c0-.3.2-.5.5-.5h13.3c.3.0.5.2.5.5v22.4c4.6-2.4 9.6-3.6 14.6-3.6 7.3.0 14.1 2.7 19 7.5 2.5 2.4 4.4 5.4 5.8 8.7 1.4 3.5 2.1 7.2 2.1 11.3.0 7.8-2.8 14.8-7.9 19.8-4.9 4.9-11.6 7.6-19 7.6m-14.6-17.4c3.3 2.7 7.6 4.2 12.2 4.2 4.3.0 8.1-1.4 10.8-4 2.8-2.6 4.3-6.2 4.3-10.4.0-4-1.5-7.7-4.3-10.3-2.8-2.7-6.6-4.1-10.8-4.1-4.6.0-8.9 1.5-12.2 4.1z" id="path4"/><path fill="#013444" d="m8.4 145.8c-2.7.0-5.3-.3-8-.8C.2 145 0 144.7.0 144.5v-10.7c0-.3.2-.5.5-.5s.6.0.9.0c.3.0.6.0.8.0 3.4.0 5.3-.7 6.4-2.3 1.1-1.6 1.5-4.2 1.5-8.9v-45c0-.3.2-.5.5-.5H24c.3.0.5.2.5.5v51.7c0 5.3-1.7 9.6-4.8 12.6-2.8 2.9-6.8 4.4-11.3 4.4m9-75.7c-4.5.0-8.2-3.7-8.2-8.3.0-4.6 3.7-8.4 8.2-8.4 2.1.0 4.2.9 5.7 2.5s2.4 3.7 2.4 5.9c0 4.6-3.7 8.3-8.1 8.3" id="path6"/><path fill="#013444" d="m180.8 127.5h-13.2c-.3.0-.5-.2-.5-.5V91.9c0-.2.1-.4.4-.5l13.2-3.9c.2.0.3.0.4.1s.2.2.2.4v39c0 .3-.2.5-.5.5" id="path8"/><path fill="#013444" d="m203.6 127.5h-13.2c-.3.0-.5-.2-.5-.5V85c0-.2.1-.4.4-.5l13.2-4c.2.0.3.0.4.1s.2.2.2.4v46c0 .3-.2.5-.5.5" id="path10"/><g id="g16"><path fill="#4eb57d" d="m167.6 82c-.1.0-.2.0-.3-.1-.1-.1-.2-.2-.3-.3-1.5-5-3.2-10.6-4.9-16-2.1-6.9-4.4-14.1-6.2-20.5-2.2-7.7-1.3-16.2 2.3-24 3.6-7.8 9.6-13.9 16.9-17.4 5.4-2.5 11-3.8 16.7-3.8 8 0 15.6 2.5 21.9 7.4 6.5 4.9 11.1 11.9 13.4 20.2 1.2 4.3 1.5 8.9 1 13.4-.5 4.4-1.9 8.7-3.9 12.7C220 62 213 68.1 204.5 71l-36.7 11c-.1.0-.1.0-.2.0" id="path12"/><path fill="#fff" d="m178.8 31.5v-.7c0-.9.7-1.6 1.6-1.6h22.9c.9.0 1.6.7 1.6 1.6v.7l-13.1 8.1zM192.3 42c-.1.1-.3.1-.4.1s-.3.0-.4-.1l-12.6-7.9v13.2c0 .9.7 1.6 1.6 1.6h22.9c.9.0 1.6-.7 1.6-1.6V34.1z" id="path14"/></g></g></g></svg>