<svg id="ekICzRj6bo31" xmlns="http://www.w3.org/2000/svg" xmlns:xlink="http://www.w3.org/1999/xlink" viewBox="0 0 180 160" shape-rendering="geometricPrecision" text-rendering="geometricPrecision" project-id="db040a530ee24f1dab62f21db21fac46" export-id="47cbdef82c7b44f5a7173c88023caeb6" cached="false" style="background-color:#fff">
<style><![CDATA[
#ekICzRj6bo320_ts {animation: ekICzRj6bo320_ts__ts 14000ms linear 3 normal forwards}@keyframes ekICzRj6bo320_ts__ts { 0% {transform: translate(90px,90px) scale(1,1)} 7.142857% {transform: translate(90px,90px) scale(1,1);animation-timing-function: cubic-bezier(0,0,0.58,1)} 10% {transform: translate(90px,90px) scale(1.7,1.7);animation-timing-function: cubic-bezier(0.42,0,1,1)} 12.857143% {transform: translate(90px,90px) scale(1,1);animation-timing-function: cubic-bezier(0,0,0.58,1)} 15.714286% {transform: translate(90px,90px) scale(1.7,1.7);animation-timing-function: cubic-bezier(0.42,0,1,1)} 18.571429% {transform: translate(90px,90px) scale(1,1)} 48.571429% {transform: translate(90px,90px) scale(1,1);animation-timing-function: cubic-bezier(0,0,0.58,1)} 64.285714% {transform: translate(90px,90px) scale(1,1)} 100% {transform: translate(90px,90px) scale(1,1)}} #ekICzRj6bo320 {animation: ekICzRj6bo320_c_o 14000ms linear 3 normal forwards}@keyframes ekICzRj6bo320_c_o { 0% {opacity: 1} 7.142857% {opacity: 1;animation-timing-function: step-end} 31.428571% {opacity: 0;animation-timing-function: step-end} 57.785714% {opacity: 1} 100% {opacity: 1}} #ekICzRj6bo321_ts {animation: ekICzRj6bo321_ts__ts 14000ms linear 3 normal forwards}@keyframes ekICzRj6bo321_ts__ts { 0% {transform: translate(90.000001px,90.000001px) scale(1.707865,1.629216)} 18.428571% {transform: translate(90.000001px,90.000001px) scale(1.707865,1.629216);animation-timing-function: cubic-bezier(0.175,0.885,0.32,1.275)} 18.571429% {transform: translate(90.000001px,90.000001px) scale(4.269663,4.197314);animation-timing-function: cubic-bezier(0.175,0.885,0.32,1.275)} 22% {transform: translate(90.000001px,90.000001px) scale(15,15)} 48.571429% {transform: translate(90.000001px,90.000001px) scale(15,15)} 100% {transform: translate(90.000001px,90.000001px) scale(15,15)}} #ekICzRj6bo321 {animation: ekICzRj6bo321_f_o 14000ms linear 3 normal forwards}@keyframes ekICzRj6bo321_f_o { 0% {fill-opacity: 1} 18.571429% {fill-opacity: 1} 31.428571% {fill-opacity: 1} 34.285714% {fill-opacity: 0} 48.571429% {fill-opacity: 0} 100% {fill-opacity: 0}} #ekICzRj6bo323_ts {animation: ekICzRj6bo323_ts__ts 14000ms linear 3 normal forwards}@keyframes ekICzRj6bo323_ts__ts { 0% {transform: translate(90px,90px) scale(1.09375,1.09375)} 7.142857% {transform: translate(90px,90px) scale(1.09375,1.09375);animation-timing-function: cubic-bezier(0,0,0.58,1)} 10% {transform: translate(90px,90px) scale(1.875,1.875);animation-timing-function: cubic-bezier(0.42,0,1,1)} 12.857143% {transform: translate(90px,90px) scale(1.09375,1.093751);animation-timing-function: cubic-bezier(0,0,0.58,1)} 15.714286% {transform: translate(90px,90px) scale(1.875,1.875);animation-timing-function: cubic-bezier(0.42,0,1,1)} 18.428571% {transform: translate(90px,90px) scale(1,1);animation-timing-function: cubic-bezier(0.25,1,0.25,1)} 18.571429% {transform: translate(90px,90px) scale(1.875,1.875);animation-timing-function: cubic-bezier(0.25,1,0.25,1)} 20.571429% {transform: translate(90px,90px) scale(4.230308,4.230308);animation-timing-function: cubic-bezier(0.42,0,1,1)} 22% {transform: translate(90px,90px) scale(3.536943,3.536943)} 100% {transform: translate(90px,90px) scale(3.536943,3.536943)}} #ekICzRj6bo323 {animation: ekICzRj6bo323_c_o 14000ms linear 3 normal forwards}@keyframes ekICzRj6bo323_c_o { 0% {opacity: 1} 31.428571% {opacity: 1} 34.285714% {opacity: 0} 100% {opacity: 0}} #ekICzRj6bo326 {animation: ekICzRj6bo326_c_o 14000ms linear 3 normal forwards}@keyframes ekICzRj6bo326_c_o { 0% {opacity: 0} 31.428571% {opacity: 0} 34.285714% {opacity: 1} 57.785714% {opacity: 1} 61.357143% {opacity: 0} 100% {opacity: 0}} #ekICzRj6bo327 {animation: ekICzRj6bo327_f_o 14000ms linear 3 normal forwards}@keyframes ekICzRj6bo327_f_o { 0% {fill-opacity: 0} 31.428571% {fill-opacity: 0;animation-timing-function: cubic-bezier(0.47,0,0.745,0.715)} 34.285714% {fill-opacity: 1} 57.785714% {fill-opacity: 1} 61.357143% {fill-opacity: 0} 100% {fill-opacity: 0}} #ekICzRj6bo328 {animation: ekICzRj6bo328_c_o 14000ms linear 3 normal forwards}@keyframes ekICzRj6bo328_c_o { 0% {opacity: 0} 31.428571% {opacity: 0;animation-timing-function: cubic-bezier(0.47,0,0.745,0.715)} 34.285714% {opacity: 1} 52.785714% {opacity: 1} 61.357143% {opacity: 0} 100% {opacity: 0}} #ekICzRj6bo330_to {animation: ekICzRj6bo330_to__to 14000ms linear 3 normal forwards}@keyframes ekICzRj6bo330_to__to { 0% {transform: translate(47.000003px,140px)} 40.714286% {transform: translate(47.000003px,140px);animation-timing-function: cubic-bezier(0,0,0.095,0.845)} 48.571429% {transform: translate(87.000003px,140px)} 50.714286% {transform: translate(97.000003px,140px)} 100% {transform: translate(97.000003px,140px)}} #ekICzRj6bo330 {animation: ekICzRj6bo330_c_o 14000ms linear 3 normal forwards}@keyframes ekICzRj6bo330_c_o { 0% {opacity: 0} 31.428571% {opacity: 0;animation-timing-function: step-end} 34.285714% {opacity: 1} 57.857143% {opacity: 0} 100% {opacity: 0}} #ekICzRj6bo334_to {animation: ekICzRj6bo334_to__to 14000ms linear 3 normal forwards}@keyframes ekICzRj6bo334_to__to { 0% {transform: translate(50px,140px)} 40.714286% {transform: translate(50px,140px);animation-timing-function: cubic-bezier(0,0,0.095,0.845)} 48.571429% {transform: translate(90px,140px)} 100% {transform: translate(90px,140px)}} #ekICzRj6bo334 {animation: ekICzRj6bo334_c_o 14000ms linear 3 normal forwards}@keyframes ekICzRj6bo334_c_o { 0% {opacity: 0} 31.428571% {opacity: 0;animation-timing-function: cubic-bezier(0.47,0,0.745,0.715)} 34.285714% {opacity: 1} 57.785714% {opacity: 1} 59.928571% {opacity: 0} 100% {opacity: 0}} #ekICzRj6bo337_ts {animation: ekICzRj6bo337_ts__ts 14000ms linear 3 normal forwards}@keyframes ekICzRj6bo337_ts__ts { 0% {transform: translate(90px,80px) scale(1.09375,1.09375)} 7.142857% {transform: translate(90px,80px) scale(1.09375,1.09375);animation-timing-function: cubic-bezier(0,0,0.58,1)} 48.571429% {transform: translate(90px,80px) scale(1.09375,1.09375);animation-timing-function: cubic-bezier(0,0,0.58,1)} 64.285714% {transform: translate(90px,80px) scale(1.093751,1.093751)} 100% {transform: translate(90px,80px) scale(1.093751,1.093751)}} #ekICzRj6bo337 {animation: ekICzRj6bo337_c_o 14000ms linear 3 normal forwards}@keyframes ekICzRj6bo337_c_o { 0% {opacity: 0} 7.142857% {opacity: 0;animation-timing-function: step-end} 48.5% {opacity: 1} 48.571429% {opacity: 0} 64.214286% {opacity: 1} 100% {opacity: 1}}
]]></style>
<path d="M83.873684,0h-71.747368C5.456842,0,0,5.4,0,12v136c0,6.6,5.456842,12,12.126316,12h71.747368C90.543158,160,96,154.6,96,148v-136C96,5.4,90.543158,0,83.873684,0v0Z" transform="translate(42 0)" fill="#8ec0fa"/><path d="M78.917647,0C82.863529,0,86,3.1,86,7v136c0,3.8-3.136471,7-7.082353,7h-71.835294C3.237647,150,0,146.8,0,143L0,7C0,3.1,3.237647,0,7.082353,0h71.835294" transform="translate(47 5)" fill="#c8e0fd" stroke-width="1.176471"/><g transform="translate(0-10)"><rect width="11.710527" height="12.275843" rx="3" ry="3" transform="matrix(1.707865 0 0 1.629216 80.000001 55.101071)" fill="#fff" fill-opacity="0.6" stroke-width="0"/><rect width="11.710527" height="12.275843" rx="3" ry="3" transform="matrix(1.707865 0 0 1.629216 55.000001 55.101071)" fill="#fff" fill-opacity="0.6" stroke-width="0"/><rect width="11.710527" height="12.275843" rx="3" ry="3" transform="matrix(1.707865 0 0 1.629216 80.000018 30.101071)" fill="#fff" fill-opacity="0.6" stroke-width="0"/><rect width="11.710527" height="12.275843" rx="3" ry="3" transform="matrix(1.707865 0 0 1.629216 55.000018 30.101071)" fill="#fff" fill-opacity="0.6" stroke-width="0"/><rect width="11.710527" height="12.275843" rx="3" ry="3" transform="matrix(1.707865 0 0 1.629216 105.000001 55.101071)" fill="#fff" fill-opacity="0.6" stroke-width="0"/><rect width="11.710527" height="12.275843" rx="3" ry="3" transform="matrix(1.707865 0 0 1.629216 80.000001 104.898929)" fill="#fff" fill-opacity="0.6" stroke-width="0"/><rect width="11.710527" height="12.275843" rx="3" ry="3" transform="matrix(1.707865 0 0 1.629216 55.000001 104.898929)" fill="#fff" fill-opacity="0.6" stroke-width="0"/><rect width="11.710527" height="12.275843" rx="3" ry="3" transform="matrix(1.707865 0 0 1.629216 105.000001 104.898929)" fill="#fff" fill-opacity="0.6" stroke-width="0"/><rect width="11.710527" height="12.275843" rx="3" ry="3" transform="matrix(1.707865 0 0 1.629216 105.000001 80.101071)" fill="#fff" fill-opacity="0.6" stroke-width="0"/><rect width="11.710527" height="12.275843" rx="3" ry="3" transform="matrix(1.707865 0 0 1.629216 55.000001 80.101071)" fill="#fff" fill-opacity="0.6" stroke-width="0"/><rect width="11.710527" height="12.275843" rx="3" ry="3" transform="matrix(1.707865 0 0 1.629216 105.000001 30.101071)" fill="#fff" fill-opacity="0.6" stroke-width="0"/><rect width="11.710527" height="12.275843" rx="3" ry="3" transform="matrix(1.707865 0 0 1.629216 80.000001 129.898929)" fill="#fff" fill-opacity="0.6" stroke-width="0"/><rect width="11.710527" height="12.275843" rx="3" ry="3" transform="matrix(1.707865 0 0 1.629216 55.000001 129.898929)" fill="#fff" fill-opacity="0.6" stroke-width="0"/></g><g transform="translate(0-10)" clip-path="url(#ekICzRj6bo324)"><g transform="translate(.000001 0.000001)"><g id="ekICzRj6bo320_ts" transform="translate(90,90) scale(1,1)"><rect id="ekICzRj6bo320" width="20" height="20" rx="5" ry="5" transform="translate(-10,-10)" fill="#0060e6" stroke-width="0"/></g><g id="ekICzRj6bo321_ts" transform="translate(90.000001,90.000001) scale(1.707865,1.629216)"><rect id="ekICzRj6bo321" width="11.710527" height="12.275843" rx="3" ry="3" transform="translate(-5.855264,-6.137922)" fill="#0060e6" stroke-width="0"/></g><g id="ekICzRj6bo323_ts" transform="translate(90,90) scale(1.09375,1.09375)"><path id="ekICzRj6bo323" d="M7,9.8C8,9.8,8.8,9,8.8,8s-.8-1.8-1.8-1.8-1.8.8-1.8,1.8.8,1.8,1.8,1.8Zm0,.7c-1.7,0-3,1-3.2,3.3h6.4C10,11.5,8.7,10.5,7,10.5Zm5.3-4.3h-1.3v7.6h1.2c3.1,0,4.4-1.7,4.4-3.8s-1.3-3.8-4.3-3.8Z" transform="translate(-10.2,-10)" fill="#fff"/></g></g><clipPath id="ekICzRj6bo324"><path d="M83.873684,0h-71.747368C5.456842,0,0,5.4,0,12v136c0,6.6,5.456842,12,12.126316,12h71.747368C90.543158,160,96,154.6,96,148v-136C96,5.4,90.543158,0,83.873684,0v0Z" transform="translate(42 10)" fill="#fff"/></clipPath></g><path id="ekICzRj6bo326" d="M78.917647,0C82.863529,0,86,3.1,86,7v136c0,3.8-3.136471,7-7.082353,7h-71.835294C3.237647,150,0,146.8,0,143L0,7C0,3.1,3.237647,0,7.082353,0h71.835294" transform="translate(47 5)" opacity="0" fill="#fff" stroke-width="1.176471"/><path id="ekICzRj6bo327" d="M7.411064,10.262583c1.128457,0,2.031223-.902796,2.031223-2.031291s-.902766-2.031292-2.031223-2.031292-2.031224.902796-2.031224,2.031292.902766,2.031291,2.031224,2.031291Zm0,.789947c-1.918378,0-3.385373,1.128495-3.611064,3.724034h7.222128c-.225692-2.595539-1.692687-3.724034-3.611064-3.724034ZM13.391888,6.2h-1.466994v8.576564h1.354149c3.498218,0,4.965212-1.918442,4.965212-4.288282s-1.466994-4.288282-4.852367-4.288282Z" transform="matrix(3.134118 0 0 3.134122 55.455351 11.806507)" fill="#0060e6" fill-opacity="0"/><path id="ekICzRj6bo328" d="M10,0h40c5.5,0,10,4.5,10,10v0c0,5.5-4.5,10-10,10h-40C4.5,20,0,15.5,0,10v0C0,4.5,4.5,0,10,0Z" transform="translate(60 120)" opacity="0" clip-rule="evenodd" fill="#0060e6" fill-rule="evenodd"/><g transform="translate(0-10)" clip-path="url(#ekICzRj6bo331)"><g id="ekICzRj6bo330_to" transform="translate(47.000003,140)"><rect id="ekICzRj6bo330" width="7.939512" height="30" rx="0" ry="0" transform="scale(-7.55714,1) translate(-3.043479,-15)" opacity="0" fill="#fff" stroke-width="0"/></g><clipPath id="ekICzRj6bo331"><rect width="69" height="33" rx="0" ry="0" transform="translate(55 124)" fill="#fff" stroke-width="0"/></clipPath></g><g transform="translate(0-10)" clip-path="url(#ekICzRj6bo335)"><g id="ekICzRj6bo334_to" transform="translate(50,140)"><path id="ekICzRj6bo334" d="M10,0h40c5.5,0,10,4.5,10,10v0c0,5.5-4.5,10-10,10h-40C4.5,20,0,15.5,0,10v0C0,4.5,4.5,0,10,0Z" transform="translate(-30,-10)" opacity="0" clip-rule="evenodd" fill="#c8e0fd" fill-rule="evenodd"/></g><clipPath id="ekICzRj6bo335"><path d="M10,0h40c5.5,0,10,4.5,10,10v0c0,5.5-4.5,10-10,10h-40C4.5,20,0,15.5,0,10v0C0,4.5,4.5,0,10,0Z" transform="translate(60 130)" clip-rule="evenodd" fill="#fff" fill-rule="evenodd"/></clipPath></g><g id="ekICzRj6bo337_ts" transform="translate(90,80) scale(1.09375,1.09375)"><g id="ekICzRj6bo337" transform="translate(-10.2,-10)" opacity="0"><g><path d="M7,9.8C8,9.8,8.8,9,8.8,8s-.8-1.8-1.8-1.8-1.8.8-1.8,1.8.8,1.8,1.8,1.8Zm0,.7c-1.7,0-3,1-3.2,3.3h6.4C10,11.5,8.7,10.5,7,10.5Zm5.3-4.3h-1.3v7.6h1.2c3.1,0,4.4-1.7,4.4-3.8s-1.3-3.8-4.3-3.8Z" fill="#fff"/></g></g></g></svg>
