<?xml version="1.0" encoding="UTF-8"?>
<!DOCTYPE svg PUBLIC "-//W3C//DTD SVG 1.1//EN" "http://www.w3.org/Graphics/SVG/1.1/DTD/svg11.dtd">
<svg version="1.1" xmlns="http://www.w3.org/2000/svg" xmlns:xlink="http://www.w3.org/1999/xlink" x="0" y="0" width="235" height="93" viewBox="0, 0, 235, 93">
  <g id="Background">
    <rect x="0" y="0" width="235" height="93" fill="#FFFFFF"/>
  </g>
  <g id="g10">
    <path d="M116.382,1.317 L100.985,73.284 L82.369,73.284 L97.767,1.317 z M194.709,47.785 L204.51,20.76 L210.151,47.785 z M215.48,73.284 L232.7,73.284 L217.674,1.317 L201.777,1.317 C198.207,1.317 195.193,3.395 193.853,6.597 L165.922,73.284 L185.47,73.284 L189.353,62.537 L213.238,62.537 z M166.893,49.787 C166.972,30.792 140.623,29.746 140.807,21.26 C140.861,18.677 143.322,15.933 148.701,15.23 C151.373,14.882 158.719,14.614 167.061,18.452 L170.327,3.192 C165.848,1.564 160.081,0 152.912,0 C134.512,0 121.559,9.784 121.45,23.792 C121.334,34.152 130.695,39.931 137.751,43.377 C145.002,46.905 147.439,49.164 147.408,52.318 C147.36,57.15 141.622,59.278 136.269,59.363 C126.907,59.51 121.475,56.835 117.145,54.818 L113.771,70.586 C118.121,72.585 126.149,74.32 134.478,74.41 C154.033,74.41 166.829,64.746 166.893,49.787 M89.779,1.317 L59.617,73.284 L39.934,73.284 L25.092,15.848 C24.191,12.31 23.407,11.017 20.665,9.527 C16.195,7.099 8.804,4.82 2.3,3.408 L2.745,1.317 L34.422,1.317 C38.459,1.317 42.091,4.004 43.008,8.653 L50.848,50.302 L70.221,1.317 L89.779,1.317" fill="#1D337A" id="path14"/>
  </g>
</svg>
